<?xml version="1.0" ?><svg viewBox="0 0 32 32" xmlns="http://www.w3.org/2000/svg"><defs><style>.cls-1{fill:none;stroke:#000;stroke-linejoin:round;stroke-width:2px;}</style></defs><title/><g data-name="10-Headphones" id="_10-Headphones"><path class="cls-1" d="M7,13a9,9,0,0,1,18,0"/><path class="cls-1" d="M4,13a12,12,0,1,1,24,0"/><polygon class="cls-1" points="4 13 1 13 1 23 4 23 7 23 7 13 4 13"/><polygon class="cls-1" points="25 13 25 23 31 23 31 13 28 13 25 13"/><polyline class="cls-1" points="4 23 4 29 14 29"/><polygon class="cls-1" points="18 31 14 31 14 29 14 27 18 27 18 31"/><path class="cls-1" d="M13,14a3,3,0,1,1,3,3v2"/><line class="cls-1" x1="15" x2="17" y1="21" y2="21"/></g></svg>